<svg height="258" viewBox="0 0 382 258" width="382" xmlns="http://www.w3.org/2000/svg"><g transform="translate(.352 .6)"><path d="m27.264 34.048v-12.544c0-1.792-.064-3.2426667-.192-4.352s-.4053333-1.9413333-.832-2.496-1.0666667-.9386667-1.92-1.152-1.9626667-.32-3.328-.32c-1.4506667 0-2.5813333.1066667-3.392.32s-1.4293333.5973333-1.856 1.152-.704 1.3866667-.832 2.496-.192 2.56-.192 4.352v9.984c0 2.048.2133333 3.5626667.64 4.544s1.4933333 1.984 3.2 3.008c1.4506667.9386667 3.392 2.0053333 5.824 3.2s5.0986667 2.688 8 4.48c2.1333333 1.3653333 3.8613333 2.6026667 5.184 3.712s2.304 2.3466667 2.944 3.712 1.0666667 2.9866667 1.28 4.864.32 4.224.32 7.04v16.256c0 4.6933333-.2773333 8.448-.832 11.264s-1.6 4.9706667-3.136 6.464c-1.536 1.493333-3.6693333 2.474667-6.4 2.944s-6.272.704-10.624.704c-4.1813333 0-7.5946667-.234667-10.24-.704-2.64533333-.469333-4.736-1.429333-6.272-2.88-1.536-1.4506667-2.60266667-3.584-3.2-6.4s-.896-6.6133333-.896-11.392v-20.096h14.336v20.096c0 1.792.064 3.2213333.192 4.288s.4053333 1.8986667.832 2.496 1.0453333 1.0026667 1.856 1.216 1.8986667.32 3.264.32c2.7306667 0 4.4586667-.512 5.184-1.536s1.088-3.2853333 1.088-6.784v-15.232c0-2.7306667-.1706667-4.6933333-.512-5.888s-1.3226667-2.3466667-2.944-3.456c-.8533333-.5973333-1.92-1.2586667-3.2-1.984s-2.6453333-1.4933333-4.096-2.304-2.9226667-1.6426667-4.416-2.496-2.83733333-1.664-4.032-2.432c-1.792-1.1946667-3.22133333-2.3253333-4.288-3.392s-1.87733333-2.24-2.432-3.52-.91733333-2.7306667-1.088-4.352-.256-3.6266667-.256-6.016v-9.728c0-4.6933333.27733333-8.448.832-11.264s1.57866667-4.992 3.072-6.528 3.584-2.53866667 6.272-3.008 6.208-.704 10.56-.704 7.872.23466667 10.56.704 4.8 1.472 6.336 3.008 2.5813333 3.712 3.136 6.528.832 6.5706667.832 11.264v12.544z"/><path d="m65.616 68.608v18.048c0 2.4746667.32 4.0746667.96 4.8s2.1546667 1.088 4.544 1.088c2.304 0 3.7973333-.3626667 4.48-1.088s1.024-2.3253333 1.024-4.8v-10.368h11.776v11.136c0 3.584-.2346667 6.464-.704 8.64s-1.344 3.8186667-2.624 4.928c-1.28 1.109333-3.0506667 1.834667-5.312 2.176s-5.184.512-8.768.512c-3.7546667 0-6.8266667-.170667-9.216-.512s-4.2453333-1.088-5.568-2.24-2.2186667-2.7946667-2.688-4.928-.704-4.992-.704-8.576v-46.72c0-3.584.2346667-6.4426667.704-8.576s1.3653333-3.776 2.688-4.928 3.1786667-1.8986667 5.568-2.24 5.4613333-.512 9.216-.512c3.584 0 6.5066667.1706667 8.768.512s4.032 1.0666667 5.312 2.176 2.1546667 2.752 2.624 4.928.704 5.056.704 8.64v27.904zm0-10.496h11.008v-16.384c0-2.4746667-.3413333-4.0533333-1.024-4.736s-2.176-1.024-4.48-1.024c-2.3893333 0-3.904.3413333-4.544 1.024s-.96 2.2613333-.96 4.736z"/><path d="m113.568 102.4h-13.056v-76.672h12.16v5.12c.938667-1.7066667 2.368-3.0933333 4.288-4.16s4.586667-1.6 8-1.6c2.133333 0 3.946667.256 5.44.768s2.688 1.3653333 3.584 2.56 1.536 2.7946667 1.92 4.8.576 4.5013333.576 7.488v19.072h-11.776v-17.536c0-1.8773333-.298667-3.2426667-.896-4.096s-1.877333-1.28-3.84-1.28c-1.792 0-3.178667.3413333-4.16 1.024s-1.728 1.7493333-2.24 3.2z"/><path d="m158.832 14.592h-12.928v-13.312h12.928zm0 87.808h-12.928v-76.672h12.928z"/><path d="m207.808 87.424c0 3.584-.256 6.4426667-.768 8.576s-1.429333 3.776-2.752 4.928-3.178667 1.898667-5.568 2.24-5.461333.512-9.216.512-6.826667-.170667-9.216-.512-4.266667-1.088-5.632-2.24-2.282667-2.7946667-2.752-4.928-.704-4.992-.704-8.576v-46.72c0-3.584.234667-6.4426667.704-8.576s1.386667-3.776 2.752-4.928 3.242667-1.8986667 5.632-2.24 5.461333-.512 9.216-.512 6.826667.1706667 9.216.512 4.245333 1.088 5.568 2.24 2.24 2.7946667 2.752 4.928.768 4.992.768 8.576zm-12.672-45.312c0-2.2186667-.341333-3.6693333-1.024-4.352s-2.133333-1.024-4.352-1.024c-2.474667 0-4.074667.3413333-4.8 1.024s-1.088 2.1333333-1.088 4.352v44.032c0 2.2186667.341333 3.6906667 1.024 4.416s2.218667 1.088 4.608 1.088c2.474667 0 4.032-.384 4.672-1.152s.96-2.2186667.96-4.352z"/><path d="m243.856 25.728h13.184v76.672h-12.288v-4.992c-1.024 1.9626667-2.453333 3.392-4.288 4.288s-4.501333 1.344-8 1.344c-2.474667 0-4.544-.256-6.208-.768s-2.986667-1.365333-3.968-2.56c-.981333-1.1946667-1.685333-2.7946667-2.112-4.8s-.64-4.5013333-.64-7.488v-61.696h13.056v60.416c0 1.792.341333 3.1146667 1.024 3.968s2.005333 1.28 3.968 1.28 3.370667-.3626667 4.224-1.088 1.536-1.6853333 2.048-2.88z"/><path d="m292.832 47.872v-5.76c0-2.2186667-.32-3.6906667-.96-4.416s-2.197333-1.088-4.672-1.088-4.010667.3626667-4.608 1.088-.896 2.1973333-.896 4.416v6.144c0 1.1946667.085333 2.1333333.256 2.816s.469333 1.3013333.896 1.856 1.066667 1.0666667 1.92 1.536 2.005333 1.0026667 3.456 1.6c.256.1706667.789333.4266667 1.6.768s1.706667.7466667 2.688 1.216 1.962667.9173333 2.944 1.344 1.770667.8106667 2.368 1.152c1.706667.9386667 3.072 1.8346667 4.096 2.688s1.792 1.7706667 2.304 2.752.853333 2.048 1.024 3.2.256 2.4533333.256 3.904v14.208c0 3.584-.234667 6.464-.704 8.64s-1.365333 3.84-2.688 4.992-3.157333 1.898667-5.504 2.24-5.44.512-9.28.512c-3.754667 0-6.826667-.170667-9.216-.512s-4.266667-1.088-5.632-2.24-2.304-2.816-2.816-4.992-.768-5.056-.768-8.64v-11.776h12.8v10.368c0 2.304.341333 3.8186667 1.024 4.544s2.218667 1.088 4.608 1.088c2.474667 0 4.010667-.384 4.608-1.152s.896-2.2613333.896-4.48v-9.344c0-1.024-.064-1.8773333-.192-2.56s-.384-1.28-.768-1.792-.917333-1.0026667-1.6-1.472-1.621333-.96-2.816-1.472c-1.024-.512-1.962667-.9386667-2.816-1.28s-1.685333-.6613333-2.496-.96-1.642667-.64-2.496-1.024-1.792-.8746667-2.816-1.472c-1.621333-.8533333-2.944-1.7066667-3.968-2.56s-1.834667-1.8133333-2.432-2.88-1.002667-2.304-1.216-3.712-.32-3.136-.32-5.184v-9.344c0-3.584.256-6.464.768-8.64s1.429333-3.84 2.752-4.992 3.178667-1.8986667 5.568-2.24 5.504-.512 9.344-.512c3.754667 0 6.826667.1706667 9.216.512s4.245333 1.088 5.568 2.24 2.218667 2.816 2.688 4.992.704 5.056.704 8.64v7.04z"/><path d="m330.544 102.4h-13.056v-101.12h13.056z"/><path d="m367.744 25.728h13.056v77.952c0 6.229333-1.365333 10.837333-4.096 13.824s-7.338667 4.48-13.824 4.48h-17.152v-11.008h13.952c2.901333 0 4.928-.490667 6.08-1.472s1.728-2.922667 1.728-5.824v-9.856c-1.194667 1.9626667-2.709333 3.328-4.544 4.096s-4.245333 1.152-7.232 1.152c-2.389333 0-4.394667-.256-6.016-.768s-2.922667-1.3653333-3.904-2.56-1.685333-2.7946667-2.112-4.8-.64-4.5013333-.64-7.488v-57.728h13.056v55.296c0 2.4746667.426667 4.16 1.28 5.056s2.261333 1.344 4.224 1.344c1.706667 0 2.986667-.2986667 3.84-.896s1.621333-1.6213333 2.304-3.072z"/><path d="m21.632 256.68c-4.2666667 0-7.744-.234667-10.432-.704s-4.8-1.450667-6.336-2.944-2.60266667-3.648-3.2-6.464-.896-6.570667-.896-11.264v-81.024h14.72v81.024c0 1.792.0853333 3.221333.256 4.288s.4693333 1.877333.896 2.432 1.0666667.938667 1.92 1.152 1.92.32 3.2.32 2.3466667-.106667 3.2-.32 1.4933333-.597333 1.92-1.152.7253333-1.365333.896-2.432.256-2.496.256-4.288v-81.024h14.336v81.024c0 4.693333-.2986667 8.448-.896 11.264s-1.664 4.970667-3.2 6.464-3.648 2.474667-6.336 2.944-6.1226667.704-10.304.704z"/><path d="m67.92 255.4h-13.056v-76.672h12.16v5.12c1.024-1.962667 2.4746667-3.413333 4.352-4.352s4.608-1.408 8.192-1.408c2.4746667 0 4.544.256 6.208.768s3.008 1.386667 4.032 2.624 1.7493333 2.858667 2.176 4.864.64 4.458667.64 7.36v61.696h-13.056v-60.288c0-1.962667-.3626667-3.328-1.088-4.096s-2.0693333-1.152-4.032-1.152c-2.1333333 0-3.6266667.362667-4.48 1.088s-1.536 1.685333-2.048 2.88z"/><path d="m154.992 197.16v-22.912c0-1.706667-.064-3.093333-.192-4.16s-.426667-1.877333-.896-2.432-1.109333-.938667-1.92-1.152-1.856-.32-3.136-.32c-1.365333 0-2.453333.106667-3.264.32s-1.450667.618667-1.92 1.216-.768 1.429333-.896 2.496-.192 2.410667-.192 4.032v61.056c0 1.792.064 3.221333.192 4.288s.426667 1.898667.896 2.496 1.109333 1.002667 1.92 1.216 1.898667.32 3.264.32c1.28 0 2.325333-.106667 3.136-.32s1.450667-.618667 1.92-1.216.768-1.429333.896-2.496.192-2.496.192-4.288v-23.424h14.208v23.424c0 4.778667-.277333 8.576-.832 11.392s-1.6 4.949333-3.136 6.4-3.626667 2.410667-6.272 2.88-6.016.704-10.112.704c-4.352 0-7.893333-.234667-10.624-.704s-4.864-1.450667-6.4-2.944-2.581333-3.648-3.136-6.464-.832-6.570667-.832-11.264v-61.056c0-4.608.298667-8.32.896-11.136s1.685333-4.970667 3.264-6.464 3.733333-2.474667 6.464-2.944 6.186667-.704 10.368-.704c4.096 0 7.466667.234667 10.112.704s4.736 1.450667 6.272 2.944 2.581333 3.626667 3.136 6.4.832 6.506667.832 11.2v22.912z"/><path d="m216.896 240.424c0 3.584-.256 6.442667-.768 8.576s-1.429333 3.776-2.752 4.928-3.178667 1.898667-5.568 2.24-5.461333.512-9.216.512-6.826667-.170667-9.216-.512-4.266667-1.088-5.632-2.24-2.282667-2.794667-2.752-4.928-.704-4.992-.704-8.576v-46.72c0-3.584.234667-6.442667.704-8.576s1.386667-3.776 2.752-4.928 3.242667-1.898667 5.632-2.24 5.461333-.512 9.216-.512 6.826667.170667 9.216.512 4.245333 1.088 5.568 2.24 2.24 2.794667 2.752 4.928.768 4.992.768 8.576zm-12.672-45.312c0-2.218667-.341333-3.669333-1.024-4.352s-2.133333-1.024-4.352-1.024c-2.474667 0-4.074667.341333-4.8 1.024s-1.088 2.133333-1.088 4.352v44.032c0 2.218667.341333 3.690667 1.024 4.416s2.218667 1.088 4.608 1.088c2.474667 0 4.032-.384 4.672-1.152s.96-2.218667.96-4.352z"/><path d="m264.72 240.424c0 3.584-.256 6.442667-.768 8.576s-1.429333 3.776-2.752 4.928-3.178667 1.898667-5.568 2.24-5.461333.512-9.216.512-6.826667-.170667-9.216-.512-4.266667-1.088-5.632-2.24-2.282667-2.794667-2.752-4.928-.704-4.992-.704-8.576v-46.72c0-3.584.234667-6.442667.704-8.576s1.386667-3.776 2.752-4.928 3.242667-1.898667 5.632-2.24 5.461333-.512 9.216-.512 6.826667.170667 9.216.512 4.245333 1.088 5.568 2.24 2.24 2.794667 2.752 4.928.768 4.992.768 8.576zm-12.672-45.312c0-2.218667-.341333-3.669333-1.024-4.352s-2.133333-1.024-4.352-1.024c-2.474667 0-4.074667.341333-4.8 1.024s-1.088 2.133333-1.088 4.352v44.032c0 2.218667.341333 3.690667 1.024 4.416s2.218667 1.088 4.608 1.088c2.474667 0 4.032-.384 4.672-1.152s.96-2.218667.96-4.352z"/><path d="m290.016 255.4h-13.056v-101.12h13.056z"/></g></svg>