<svg height="171" viewBox="0 0 722 171" width="722" xmlns="http://www.w3.org/2000/svg" xmlns:xlink="http://www.w3.org/1999/xlink"><defs><rect id="a" height="153" rx="8" width="704" x="9" y="5"/><filter id="b" height="119.6%" width="104.3%" x="-2.1%" y="-7.2%"><feMorphology in="SourceAlpha" operator="dilate" radius="1" result="shadowSpreadOuter1"/><feOffset dx="0" dy="4" in="shadowSpreadOuter1" result="shadowOffsetOuter1"/><feGaussianBlur in="shadowOffsetOuter1" result="shadowBlurOuter1" stdDeviation="4"/><feComposite in="shadowBlurOuter1" in2="SourceAlpha" operator="out" result="shadowBlurOuter1"/><feColorMatrix in="shadowBlurOuter1" type="matrix" values="0 0 0 0 0   0 0 0 0 0   0 0 0 0 0  0 0 0 0.15 0"/></filter></defs><g fill="none" fill-rule="evenodd"><use fill="#000" filter="url(#b)" xlink:href="#a"/><use fill="#ffee50" fill-rule="evenodd" stroke="#e4af3a" stroke-width="2" xlink:href="#a"/><g fill="#000" fill-rule="nonzero" transform="translate(112.9375 33.125)"><path d="m0 61c.08333333 9.5833333 3.25 17.1875 9.5 22.8125 6.125 5.7916667 13.75 8.7291667 22.875 8.8125 9.2916667-.0833333 16.9791667-3.0208333 23.0625-8.8125 6.0416667-5.625 9.1458333-13.2291667 9.3125-22.8125v-60.25h-13.8125v58.75c-.0833333 6.2083333-1.8333333 10.9375-5.25 14.1875-3.5 3.4166667-7.9375 5.125-13.3125 5.125s-9.7708333-1.7083333-13.1875-5.125c-3.5-3.25-5.2916667-7.9791667-5.375-14.1875v-58.75h-13.8125z"/><path d="m84.3125 91.875h13.8125v-64.75h.25l41.1875 64.75h13.0625v-91.125h-13.8125v64.75h-.25l-41.25-64.75h-13z"/><path d="m253.375 66.375c-3.833333 8.2916667-9.625 12.4375-17.375 12.4375-3.25 0-6.041667-.6875-8.375-2.0625-2.375-1.1666667-4.291667-2.6875-5.75-4.5625-1.791667-1.9583333-2.979167-4.5208333-3.5625-7.6875-.666667-3.1666667-1-9.2291667-1-18.1875s.333333-15.0625 1-18.3125c.583333-3.0833333 1.770833-5.6041667 3.5625-7.5625 1.458333-1.875 3.375-3.4375 5.75-4.6875 2.333333-1.2083333 5.125-1.8541667 8.375-1.9375 4.416667.0833333 8.166667 1.3541667 11.25 3.8125 2.958333 2.5833333 5 5.7083333 6.125 9.375h14.625c-1.458333-7.625-4.958333-14.0208333-10.5-19.1875-5.541667-5.125-12.708333-7.72916667-21.5-7.8125-7.166667.08333333-13.145833 1.79166667-17.9375 5.125-4.875 3.29166667-8.416667 7.0416667-10.625 11.25-1.375 2.2083333-2.395833 5.1041667-3.0625 8.6875-.625 3.5833333-.9375 10.6666667-.9375 21.25 0 10.4166667.3125 17.4583333.9375 21.125.333333 1.9583333.75 3.5833333 1.25 4.875.541667 1.25 1.145833 2.5625 1.8125 3.9375 2.208333 4.2083333 5.75 7.9166667 10.625 11.125 4.791667 3.3333333 10.770833 5.0833333 17.9375 5.25 7.916667 0 14.770833-2.25 20.5625-6.75 5.625-4.5416667 9.4375-11.0416667 11.4375-19.5z"/><path d="m276.625 46.3125c0 10.4166667.3125 17.4583333.9375 21.125.333333 1.9583333.75 3.5833333 1.25 4.875.541667 1.25 1.145833 2.5625 1.8125 3.9375 2.208333 4.2083333 5.75 7.9166667 10.625 11.125 4.791667 3.3333333 10.770833 5.0833333 17.9375 5.25 7.25-.1666667 13.291667-1.9166667 18.125-5.25 4.791667-3.2083333 8.25-6.9166667 10.375-11.125 1.541667-2.2083333 2.604167-5.1458333 3.1875-8.8125.541667-3.6666667.8125-10.7083333.8125-21.125 0-10.5833333-.270833-17.6666667-.8125-21.25-.583333-3.5833333-1.645833-6.4791667-3.1875-8.6875-2.125-4.2083333-5.583333-7.95833333-10.375-11.25-4.833333-3.33333333-10.875-5.04166667-18.125-5.125-7.166667.08333333-13.145833 1.79166667-17.9375 5.125-4.875 3.29166667-8.416667 7.0416667-10.625 11.25-1.375 2.2083333-2.395833 5.1041667-3.0625 8.6875-.625 3.5833333-.9375 10.6666667-.9375 21.25zm13.875 0c0-8.9583333.333333-15.0625 1-18.3125.583333-3.0833333 1.770833-5.6041667 3.5625-7.5625 1.458333-1.875 3.375-3.4375 5.75-4.6875 2.333333-1.2083333 5.125-1.8541667 8.375-1.9375 3.291667.0833333 6.145833.7291667 8.5625 1.9375 2.291667 1.25 4.125 2.8125 5.5 4.6875 1.791667 1.9583333 3.020833 4.4791667 3.6875 7.5625.625 3.25.9375 9.3541667.9375 18.3125s-.3125 15.0208333-.9375 18.1875c-.666667 3.1666667-1.895833 5.7291667-3.6875 7.6875-1.375 1.875-3.208333 3.3958333-5.5 4.5625-2.416667 1.375-5.270833 2.0625-8.5625 2.0625-3.25 0-6.041667-.6875-8.375-2.0625-2.375-1.1666667-4.291667-2.6875-5.75-4.5625-1.791667-1.9583333-2.979167-4.5208333-3.5625-7.6875-.666667-3.1666667-1-9.2291667-1-18.1875z"/><path d="m356.6875 46.3125c0 10.4166667.3125 17.4583333.9375 21.125.333333 1.9583333.75 3.5833333 1.25 4.875.541667 1.25 1.145833 2.5625 1.8125 3.9375 2.208333 4.2083333 5.75 7.9166667 10.625 11.125 4.791667 3.3333333 10.770833 5.0833333 17.9375 5.25 7.25-.1666667 13.291667-1.9166667 18.125-5.25 4.791667-3.2083333 8.25-6.9166667 10.375-11.125 1.541667-2.2083333 2.604167-5.1458333 3.1875-8.8125.541667-3.6666667.8125-10.7083333.8125-21.125 0-10.5833333-.270833-17.6666667-.8125-21.25-.583333-3.5833333-1.645833-6.4791667-3.1875-8.6875-2.125-4.2083333-5.583333-7.95833333-10.375-11.25-4.833333-3.33333333-10.875-5.04166667-18.125-5.125-7.166667.08333333-13.145833 1.79166667-17.9375 5.125-4.875 3.29166667-8.416667 7.0416667-10.625 11.25-1.375 2.2083333-2.395833 5.1041667-3.0625 8.6875-.625 3.5833333-.9375 10.6666667-.9375 21.25zm13.875 0c0-8.9583333.333333-15.0625 1-18.3125.583333-3.0833333 1.770833-5.6041667 3.5625-7.5625 1.458333-1.875 3.375-3.4375 5.75-4.6875 2.333333-1.2083333 5.125-1.8541667 8.375-1.9375 3.291667.0833333 6.145833.7291667 8.5625 1.9375 2.291667 1.25 4.125 2.8125 5.5 4.6875 1.791667 1.9583333 3.020833 4.4791667 3.6875 7.5625.625 3.25.9375 9.3541667.9375 18.3125s-.3125 15.0208333-.9375 18.1875c-.666667 3.1666667-1.895833 5.7291667-3.6875 7.6875-1.375 1.875-3.208333 3.3958333-5.5 4.5625-2.416667 1.375-5.270833 2.0625-8.5625 2.0625-3.25 0-6.041667-.6875-8.375-2.0625-2.375-1.1666667-4.291667-2.6875-5.75-4.5625-1.791667-1.9583333-2.979167-4.5208333-3.5625-7.6875-.666667-3.1666667-1-9.2291667-1-18.1875z"/><path d="m439.875 91.875h58.1875v-13.0625h-44.375v-78.0625h-13.8125z"/></g></g></svg>